<svg version="1.1" id="Layer_1" xmlns="http://www.w3.org/2000/svg" xmlns:xlink="http://www.w3.org/1999/xlink" x="0px" y="0px" width="339.242px" height="215.32px">
<path fill="#FFFFFF" d="M297.986,215.321h-57.367v-5.609h57.367V215.321z"/>
<path fill="#FFFFFF" stroke="#000000" d="M143.906,157.489c-3.671,6.358-7.943,13.635-12.96,18.963c-6.701,7.114-18.033,11.981-26.542,16.727c-35.339,19.706-83.462-5.122-90.463-42.986c-2.242-12.126-8.813-22.359-12.069-34.045c-3.148-11.296-0.599-21.004,2.223-31.824C6.951,73.37,3.942,62.185,5.993,51.339c2.231-11.796,14.776-17.737,25.389-20.83c10.269-2.993,17.78-5.872,28.658-6.286c12.65-0.481,25.19-0.606,37.837-0.155c9.232,0.331,18.926,1.488,25.523,8.688c7.92,8.644,10.151,20,11.793,31.075c2.675,18.036,6.455,36.012,12.288,53.389c2.725,8.121,0.98,12.255-1.153,20.204c-0.835,3.111-2.207,7.981-1.853,10.024L143.906,157.489z M272.783,213.258c-11.887-0.298-24.852-4.724-35.924-6.221c-6.575-0.891-10.641-0.56-16.235-4.667c-4.554-3.344-9.353-7.589-13.174-11.751c-3.824-4.165-6.843-9.252-9.195-14.482c-4.022-8.948-2.524-17.352-5.528-26.15c-2.949-8.637-10.345-15.951-15.074-23.727c-4.187-6.879-7.657-14.932-8.956-22.901c-2.505-15.379,2.696-36.953,10.048-50.201c3.724-6.708,10.135-13.593,17.976-15.729c5.03-1.37,10.269,0.422,15.387-0.344c6.146-0.92,12.564-3.467,18.36-5.688c9.343-3.579,16.291-3.271,26.479-2.461c5.121,0.408,12.087,0.343,16.888,2.247c4.741,1.88,7.054,4.84,12.25,5.874c9.45,1.881,13.493,2.22,21.626,7.255c6.671,4.129,11.909,0.998,17.489,6.51c11.597,11.458,15.425,32.556,12.825,47.969c-1.471,8.713-2.774,15.97-1.916,24.518c0.865,8.636,0.367,17.648-0.942,26.167c-2.452,15.945-7.923,29.484-18.968,41.202c-4.387,4.654-9.561,7.487-15.113,10.789c-6.521,3.878-11.783,9.534-19.465,11.097C278.775,213.141,275.814,213.333,272.783,213.258z"/>
<path stroke="#FFFFFF" d="M64.487,138.281c0,3.089-2.504,5.594-5.594,5.594s-5.594-2.505-5.594-5.594c0-3.09,2.504-5.595,5.594-5.595S64.487,135.19,64.487,138.281z"/>
<path stroke="#FFFFFF" d="M270.779,138.281c0,3.089-2.504,5.594-5.594,5.594s-5.595-2.505-5.595-5.594c0-3.09,2.505-5.595,5.595-5.595S270.779,135.19,270.779,138.281z"/>
<text transform="matrix(1 0 0 1 53.9976 130.5881)" font-family="Liberation Sans, sans-serif" font-style="italic" font-size="18">x</text>
<text transform="matrix(1 0 0 1 252.5986 128.4895)" font-family="Liberation Sans, sans-serif" font-style="italic" font-size="18">f(x)</text>
<path fill="none" stroke="#000000" d="M58.245,164.193c-8.94-0.374-18.787-4.275-22.445-11.264c-6.514-12.444,5.573-21.231,8.405-32.287c2.072-8.085-3.08-16.146-0.52-24.201c3.262-10.266,13.383-10.025,21.204-4.349c6.945,5.041,20.229,16.056,21.971,24.511c1.542,7.483-4.784,12.438-5.838,18.707c-7.065,5.026-0.194,21.144-10.938,26.744C66.955,163.685,62.713,164.38,58.245,164.193z M259.338,181.511c-6.771-0.019-14.518,2.365-20.768-1.716c-5.465-3.571-8.717-11.803-12.361-17.268c-4.427-6.635-3.822-14.038-5.667-21.622c-1.872-7.708-5.563-12.458-10.545-18.104c-5.343-6.057-9.845-9.349-7.624-18.326c2.561-10.348,13.193-18.728,21.331-22.962c15.903-8.274,44.489-6.82,61.457-3.276c14.873,3.108,20.011,23.564,21.571,37.806c1.771,16.144-1.756,23.612-7.354,37.827c-2.129,5.403-1.509,10.28-2.832,15.5C292.691,184.576,270.063,181.539,259.338,181.511z"/>
<text transform="matrix(1 0 0 1 47.0044 85.1331)" font-family="Liberation Sans, sans-serif" font-style="italic" font-size="18">U</text>
<text transform="matrix(1 0 0 1 56.7944 18.0002)" font-family="Liberation Sans, sans-serif" font-style="italic" font-size="18">X</text>
<text transform="matrix(1 0 0 1 243.5078 21.4963)" font-family="Liberation Sans, sans-serif" font-style="italic" font-size="18">Y</text>
<text transform="matrix(1 0 0 1 240.71 71.8459)" font-family="Liberation Sans, sans-serif" font-style="italic" font-size="18">V</text>
<path fill="none" stroke="#000000" stroke-dasharray="6" d="M237.895,132.159c-1.395-3.277-4.852-7.745-4.89-11.17c-0.091-8.284,9.613-13.795,16.83-14.875c15.654-2.345,32.085-0.361,37.589,15.731c5.076,14.842-2.119,40.936-19.732,44.171C247.107,169.799,243.541,145.426,237.895,132.159z"/>
<g><g>	<path fill="#FFFFFF" d="M240.316,142.999c-2.819-1.106-6.646-2.112-9.543-2.146l4.451-2.4l1.885-4.692		C237.471,136.633,238.9,140.323,240.316,142.999z"/></g><g>	<path fill="none" stroke="#000000" d="M83.368,127.79c0,0,28.192-19.581,73.091-19.581c44.898,0,79.355,30.77,79.355,30.77"/>	<path d="M240.316,142.999c-2.819-1.106-6.646-2.112-9.543-2.146l4.451-2.4l1.885-4.692		C237.471,136.633,238.9,140.323,240.316,142.999z"/></g>
</g>
<text transform="matrix(1 0 0 1 153.2983 104.0139)" font-family="Liberation Sans, sans-serif" font-style="italic" font-size="18">f</text>
<text transform="matrix(1 0 0 1 243.5078 100.5168)" font-family="Liberation Sans, sans-serif" font-style="italic" font-size="18">f(U)</text>
</svg>
