<?xml version="1.0" encoding="utf-8"?>
<!-- Generator: Adobe Illustrator 14.0.0, SVG Export Plug-In . SVG Version: 6.00 Build 43363)  -->
<!DOCTYPE svg PUBLIC "-//W3C//DTD SVG 1.1//EN" "http://www.w3.org/Graphics/SVG/1.1/DTD/svg11.dtd">
<svg version="1.1" id="Layer_1" xmlns="http://www.w3.org/2000/svg" xmlns:xlink="http://www.w3.org/1999/xlink" x="0px" y="0px"
	 width="548px" height="293px" viewBox="0 0 548 293" enable-background="new 0 0 548 293" xml:space="preserve">
<linearGradient id="SVGID_1_" gradientUnits="userSpaceOnUse" x1="351.5107" y1="270.3867" x2="851.5106" y2="-319.6123">
	<stop  offset="0" style="stop-color:#FFFFFF"/>
	<stop  offset="1" style="stop-color:#000000"/>
</linearGradient>
<path fill="url(#SVGID_1_)" d="M284.185,193.785c0,0,50.776-22.377,80.897-45.183c30.121-22.807,40.448-40.019,40.448-40.019
	s18.935-0.86,57.231,9.897c38.299,10.757,62.824,22.376,62.824,22.376s-30.98,27.11-41.74,61.104
	c-10.756,33.994-7.744,77.455-7.744,77.455s-75.291,13.326-140.268-14.643C289.295,244.74,284.185,193.785,284.185,193.785z"/>
<path opacity="0.2" fill="#1B1F8A" enable-background="new    " d="M540.924,60.92c0,0-39.955,49.733-58.66,100.314
	c-18.701,50.582-11.9,121.143-11.9,121.143s-86.123,11.977-150.047-17.854c-51.008-23.803-65.885-79.912-65.885-79.912
	s31.535-20.333,65.46-71.833c35.279-53.558,40.381-78.636,40.381-78.636s20.403-22.528,47.606-24.654
	C466.881,4.879,540.924,60.92,540.924,60.92z"/>
<path fill="none" stroke="#000000" stroke-width="1.7127" d="M540.924,60.92c0,0-39.955,49.733-58.66,100.314
	c-18.701,50.582-11.9,121.143-11.9,121.143s-86.123,11.977-150.047-17.854c-51.008-23.803-65.885-79.912-65.885-79.912
	s31.535-20.333,65.46-71.833c35.279-53.558,40.381-78.636,40.381-78.636s20.403-22.528,47.606-24.654
	C466.881,4.879,540.924,60.92,540.924,60.92z"/>
<g>
	<path fill="none" stroke="#000000" stroke-width="0.8564" d="M416.211,152.986c-17.756,49.95-35.474,128.521-35.474,128.521"/>
	<path fill="none" stroke="#000000" stroke-width="0.8564" d="M434.744,109.125c-2.786,5.97-5.485,11.897-8.015,17.646"/>
	<path fill="none" stroke="#000000" stroke-width="0.8564" d="M477.504,24.425c0,0-15.97,29.511-32.392,63.049"/>
	<path fill="none" stroke="#000000" stroke-width="0.8564" d="M351.438,179.32c-15.678,41.334-31.121,85.203-31.121,85.203"/>
	<path fill="none" stroke="#000000" stroke-width="0.8564" d="M382.1,105.294c-2.351,5.347-4.811,10.825-7.375,16.41
		c-3.76,8.182-8.383,19.346-13.329,31.854"/>
	<path fill="none" stroke="#000000" stroke-width="0.8564" d="M418.938,9.301c0,0-9.26,29.935-26.97,72.833"/>
	<path fill="none" stroke="#000000" stroke-width="0.8564" d="M344.186,107.843c-11.774,23.58-24.596,48.501-31.52,60.618
		c-11.902,20.828-33.592,62.918-33.592,62.918"/>
	<path fill="none" stroke="#000000" stroke-width="0.8564" d="M383.991,16.546c0,0-7.142,23.122-18.618,47.775
		c-1.649,3.542-3.667,7.787-5.949,12.521"/>
	<path fill="none" stroke="#000000" stroke-width="0.8564" d="M290.441,151.398c0,0,15.781,17.516,58.107,35.568
		c42.328,18.049,121.92,32.508,121.92,32.508"/>
	<path fill="none" stroke="#000000" stroke-width="0.8564" d="M440.379,145.084c23.164,8.752,41.885,16.15,41.885,16.15"/>
	<path fill="none" stroke="#000000" stroke-width="0.8564" d="M319.892,112.778c0,0,18.277-2.55,54.833,8.926
		c5.728,1.798,12.3,4.003,19.312,6.443"/>
	<path fill="none" stroke="#000000" stroke-width="0.8564" d="M343.787,72.899c0,0,16.816-14.566,54.694-6.897
		c37.878,7.67,109.782,42.566,109.782,42.566"/>
</g>
<g>
	<defs>
		<filter id="Adobe_OpacityMaskFilter" filterUnits="userSpaceOnUse" x="345.055" y="129.993" width="34.78" height="18.354">
			<feColorMatrix  type="matrix" values="1 0 0 0 0  0 1 0 0 0  0 0 1 0 0  0 0 0 1 0"/>
		</filter>
	</defs>
	<mask maskUnits="userSpaceOnUse" x="345.055" y="129.993" width="34.78" height="18.354" id="SVGID_2_">
		<g filter="url(#Adobe_OpacityMaskFilter)">
			
				<linearGradient id="SVGID_3_" gradientUnits="userSpaceOnUse" x1="87.5547" y1="69.4248" x2="53.3062" y2="73.6747" gradientTransform="matrix(-0.924 0.3825 -0.3825 -0.924 457.4879 176.1093)">
				<stop  offset="0" style="stop-color:#FFFFFF"/>
				<stop  offset="1" style="stop-color:#000000"/>
			</linearGradient>
			<polygon opacity="0.5" fill="url(#SVGID_3_)" enable-background="new    " points="384.923,139.483 345.963,155.613 
				338.694,138.058 377.654,121.929 			"/>
		</g>
	</mask>
	<g mask="url(#SVGID_2_)">
		<g>
			<g>
				<path fill="#FFFFFF" d="M372.848,134.787c0,0-5.577,3.829-12.25,7.089c-6.67,3.257-14.929,5.104-14.929,5.104"/>
				<polygon fill="#FFFFFF" points="372.814,136.782 372.674,134.906 370.977,134.1 375.177,133.189 				"/>
			</g>
			<g>
				<path fill="none" stroke="#000000" stroke-width="3" d="M372.848,134.787l-27.179,12.192"/>
				<polygon points="372.749,140.77 372.326,135.146 367.229,132.727 379.835,129.993 				"/>
			</g>
		</g>
	</g>
	<g>
		<circle cx="345.804" cy="146.671" r="3"/>
		<g>
			<g>
				<polygon fill="#FFFFFF" points="373.225,133.64 373.279,131.761 371.676,130.783 375.947,130.315 				"/>
			</g>
			<g>
				<line fill="none" stroke="#000000" stroke-width="3" x1="373.467" y1="131.661" x2="345.804" y2="146.67"/>
				<polygon points="372.744,137.602 372.91,131.962 368.092,129.027 380.914,127.62 				"/>
			</g>
		</g>
	</g>
</g>
<g>
	<path d="M255.044,67.565h2.776c0.645,0,0.968,0,0.968-0.639c0-0.351-0.323-0.351-0.871-0.351h-2.68
		c0.355-1.864,0.323-1.8,0.678-3.664c0.129-0.675,0.58-2.957,0.775-3.342c0.29-0.611,0.839-1.094,1.517-1.094
		c0.13,0,0.969,0,1.583,0.54c-1.42,0.131-1.742,1.263-1.742,1.749c0,0.744,0.58,1.133,1.194,1.133c0.839,0,1.776-0.707,1.776-1.926
		c0-1.478-1.486-2.216-2.811-2.216c-1.098,0-3.131,0.582-4.1,3.768c-0.193,0.676-0.29,0.999-1.065,5.053h-2.227
		c-0.613,0-0.969,0-0.969,0.606c0,0.383,0.291,0.383,0.903,0.383h2.131l-2.422,12.807c-0.58,3.144-1.129,6.093-2.808,6.093
		c-0.13,0-0.937,0-1.55-0.627c1.485-0.097,1.775-1.261,1.775-1.747c0-0.745-0.582-1.133-1.195-1.133
		c-0.84,0-1.776,0.721-1.776,1.967c0,1.476,1.42,2.261,2.743,2.261c1.776,0,3.066-1.913,3.647-3.145
		c1.033-2.043,1.776-5.968,1.809-6.194"/>
</g>
<g>
	<path opacity="0.2" fill="#1B1F8A" enable-background="new    " d="M89.032,83.323c20.879-2.493,54.845,11.842,66.376,18.074
		c11.529,6.232,33.343,14.645,40.823,43.626c7.479,28.982,5.559,63.167-4.699,81.599c-10.259,18.433-50.562,42.396-73.831,43.052
		c-23.267,0.655-48.79-5.705-70.982-17.342c-22.192-11.641-22.063-32.077-28.736-51.526c-6.673-19.452-15.893-37.709-7.167-56.405
		C19.54,125.704,58.661,86.949,89.032,83.323z"/>
	<path fill="none" stroke="#000000" stroke-width="1.7127" d="M89.032,83.323c20.879-2.493,54.845,11.842,66.376,18.074
		c11.529,6.232,33.343,14.645,40.823,43.626c7.479,28.982,5.559,63.167-4.699,81.599c-10.259,18.433-50.562,42.396-73.831,43.052
		c-23.267,0.655-48.79-5.705-70.982-17.342c-22.192-11.641-22.063-32.077-28.736-51.526c-6.673-19.452-15.893-37.709-7.167-56.405
		C19.54,125.704,58.661,86.949,89.032,83.323z"/>
	<g>
		<path fill="none" stroke="#000000" stroke-width="0.8564" d="M8.154,169.984c0,0,47.541-30.134,89.292-34.31
			c43.627-4.363,98.786,9.349,98.786,9.349"/>
		<path fill="none" stroke="#000000" stroke-width="0.8564" d="M17.982,200.806c0,0,48.612-14.023,86.319-18.074
			c37.706-4.052,96.433-4.055,96.433-4.055"/>
		<path fill="none" stroke="#000000" stroke-width="0.8564" d="M96.998,226.974c4.988-0.32,9.771-0.727,14.159-1.238
			c32.097-3.739,86.935-17.521,86.935-17.521"/>
		<path fill="none" stroke="#000000" stroke-width="0.8564" d="M25.807,227.593c0,0,28.956,1.023,57.032,0.062"/>
		<path fill="none" stroke="#000000" stroke-width="0.8564" d="M133.842,91.908c0,0,14.117,51.714,16.905,87.784
			c2.79,36.071,2.79,78.437,2.79,78.437"/>
		<path fill="none" stroke="#000000" stroke-width="0.8564" d="M108.79,211.813c4.31,27.954,8.912,57.86,8.912,57.86"/>
		<path fill="none" stroke="#000000" stroke-width="0.8564" d="M101.807,166.557c0.93,6.043,1.781,11.562,2.494,16.175
			c0.999,6.459,2.182,14.128,3.426,22.194"/>
		<path fill="none" stroke="#000000" stroke-width="0.8564" d="M89.032,83.323c0,0,5.646,36.863,10.513,68.528"/>
		<path fill="none" stroke="#000000" stroke-width="0.8564" d="M50.18,101.533c0,0,0.745,46.516,9.826,88.788
			c9.082,42.27,19.367,74.672,19.367,74.672"/>
	</g>
</g>
<g>
	<g>
		<path fill="none" stroke="#000000" stroke-width="3.4254" d="M331.665,50.09c-25.055-4.16-51.053-5.17-77.528-2.646
			c-41.48,3.955-80.167,16.208-114.579,34.962"/>
		<polygon points="343.595,52.07 325.643,56.148 330.772,49.942 327.924,42.412 		"/>
	</g>
</g>
<circle cx="87" cy="208.214" r="2.971"/>
<circle cx="135.845" cy="161.234" r="2.971"/>
<circle cx="429.121" cy="105.505" r="2.971"/>
<g>
	<g>
		<line fill="none" stroke="#000000" stroke-width="3" x1="87" y1="208.214" x2="103.367" y2="192.472"/>
		<polygon points="109.473,186.599 104.25,198.391 102.91,192.911 97.487,191.359 		"/>
	</g>
</g>
<line fill="none" stroke="#000000" stroke-width="0.8564" stroke-dasharray="3" x1="42.594" y1="250.924" x2="180.25" y2="118.524"/>
<path fill="none" stroke="#000000" stroke-width="0.8564" stroke-dasharray="3" d="M445.112,98.619
	c45.021-18.84,84.082-21.981,84.082-21.981"/>
<path fill="none" stroke="#000000" stroke-width="0.8564" stroke-dasharray="3" d="M256.069,189.741
	c24.931-5.741,59.321-26.098,89.6-42.762c26.999-14.859,47.4-25.845,89.882-44.111"/>
<g>
	<path d="M90.129,218.372c0.176-0.679,0.855-1.384,1.306-1.762c0.879-0.779,1.608-0.956,2.035-0.956
		c1.005,0,1.608,0.881,1.608,2.365s-0.829,4.377-1.281,5.333c-0.854,1.761-2.06,2.591-2.989,2.591c-1.658,0-1.985-2.089-1.985-2.239
		c0-0.05,0-0.101,0.075-0.402 M85.712,229.32c-0.201,0.857-0.252,1.034-1.358,1.034c-0.301,0-0.578,0-0.578,0.473
		c0,0.198,0.125,0.298,0.327,0.298c0.679,0,1.408-0.074,2.111-0.074c0.829,0,1.684,0.074,2.488,0.074c0.125,0,0.452,0,0.452-0.496
		c0-0.274-0.251-0.274-0.604-0.274c-1.257,0-1.257-0.177-1.257-0.405c0-0.303,1.055-4.422,1.231-5.056
		c0.328,0.729,1.031,1.61,2.313,1.61c2.916,0,6.06-3.677,6.06-7.378c0-2.366-1.435-4.03-3.344-4.03
		c-1.257,0-2.464,0.919-3.293,1.916c-0.251-1.38-1.333-1.916-2.263-1.916c-1.157,0-1.634,0.987-1.859,1.442
		c-0.453,0.86-0.779,2.378-0.779,2.454c0,0.252,0.251,0.252,0.301,0.252c0.252,0,0.277-0.024,0.428-0.58
		c0.427-1.795,0.93-3.009,1.834-3.009c0.427,0,0.779,0.203,0.779,1.162c0,0.579-0.075,0.857-0.176,1.286L85.712,229.32z"/>
</g>
<g>
	<path d="M341.027,159.812h2.159c0.502,0,0.753,0,0.753-0.497c0-0.273-0.251-0.273-0.678-0.273h-2.083
		c0.275-1.449,0.25-1.399,0.526-2.849c0.101-0.525,0.451-2.3,0.603-2.601c0.227-0.476,0.652-0.852,1.181-0.852
		c0.1,0,0.753,0,1.231,0.421c-1.105,0.101-1.355,0.981-1.355,1.36c0,0.578,0.451,0.881,0.928,0.881c0.653,0,1.383-0.55,1.383-1.498
		c0-1.148-1.156-1.724-2.186-1.724c-0.854,0-2.436,0.452-3.189,2.931c-0.15,0.525-0.226,0.775-0.828,3.93h-1.732
		c-0.478,0-0.754,0-0.754,0.472c0,0.298,0.227,0.298,0.703,0.298h1.657l-1.884,9.96c-0.451,2.445-0.878,4.74-2.184,4.74
		c-0.101,0-0.729,0-1.205-0.488c1.154-0.075,1.381-0.981,1.381-1.358c0-0.58-0.452-0.882-0.93-0.882
		c-0.653,0-1.381,0.562-1.381,1.53c0,1.147,1.104,1.759,2.133,1.759c1.382,0,2.385-1.488,2.838-2.446
		c0.803-1.589,1.381-4.641,1.406-4.817"/>
	<path d="M352.102,175.94c0-0.075,0-0.125-0.43-0.553c-3.154-3.165-3.961-7.914-3.961-11.758c0-4.371,0.959-8.743,4.062-11.884
		c0.329-0.301,0.329-0.352,0.329-0.427c0-0.176-0.102-0.257-0.254-0.257c-0.252,0-2.525,1.714-4.016,4.905
		c-1.289,2.764-1.591,5.552-1.591,7.663c0,1.959,0.278,4.999,1.667,7.838c1.516,3.092,3.688,4.724,3.941,4.724
		C352.001,176.192,352.102,176.117,352.102,175.94"/>
	<path d="M359.141,162.039c0.176-0.679,0.854-1.384,1.306-1.762c0.88-0.779,1.608-0.956,2.035-0.956
		c1.005,0,1.608,0.881,1.608,2.365s-0.829,4.377-1.281,5.333c-0.854,1.76-2.061,2.591-2.989,2.591c-1.658,0-1.984-2.089-1.984-2.239
		c0-0.05,0-0.101,0.074-0.402 M354.724,172.988c-0.201,0.856-0.252,1.033-1.356,1.033c-0.303,0-0.579,0-0.579,0.473
		c0,0.198,0.125,0.299,0.327,0.299c0.679,0,1.407-0.075,2.111-0.075c0.829,0,1.684,0.075,2.488,0.075c0.125,0,0.452,0,0.452-0.498
		c0-0.273-0.252-0.273-0.604-0.273c-1.257,0-1.257-0.177-1.257-0.404c0-0.303,1.055-4.423,1.231-5.057
		c0.327,0.729,1.031,1.61,2.313,1.61c2.916,0,6.06-3.677,6.06-7.378c0-2.366-1.435-4.03-3.345-4.03
		c-1.257,0-2.464,0.919-3.293,1.915c-0.251-1.379-1.332-1.915-2.262-1.915c-1.156,0-1.634,0.987-1.86,1.442
		c-0.452,0.86-0.779,2.379-0.779,2.454c0,0.253,0.251,0.253,0.302,0.253c0.252,0,0.276-0.025,0.428-0.581
		c0.428-1.795,0.931-3.009,1.835-3.009c0.427,0,0.779,0.203,0.779,1.162c0,0.58-0.076,0.857-0.177,1.286L354.724,172.988z"/>
	<path d="M373.472,163.63c0-1.961-0.278-5.001-1.665-7.839c-1.512-3.09-3.68-4.729-3.932-4.729c-0.151,0-0.253,0.105-0.253,0.256
		c0,0.075,0,0.126,0.479,0.578c2.466,2.487,3.899,6.481,3.899,11.733c0,4.295-0.931,8.717-4.051,11.883
		c-0.327,0.303-0.327,0.353-0.327,0.428c0,0.151,0.102,0.251,0.253,0.251c0.252,0,2.521-1.709,4.007-4.898
		C373.167,168.529,373.472,165.74,373.472,163.63"/>
</g>
<g>
	<path d="M117.041,198.765l-2.109-5.005c-0.074-0.201-0.125-0.302-0.125-0.327c0-0.151,0.427-0.629,1.481-0.729
		c0.251-0.025,0.502-0.051,0.502-0.472c0-0.299-0.301-0.299-0.377-0.299c-1.029,0-2.108,0.075-3.163,0.075
		c-0.627,0-2.184-0.075-2.812-0.075c-0.15,0-0.452,0-0.452,0.497c0,0.273,0.252,0.273,0.578,0.273c1.506,0,1.657,0.251,1.883,0.805
		l2.963,7.014l-5.298,5.705c-0.15,0.126-0.176,0.151-0.326,0.276c-1.23,1.333-2.411,1.735-3.691,1.81
		c-0.326,0.025-0.552,0.025-0.552,0.497c0,0.025,0,0.272,0.326,0.272c0.753,0,1.581-0.074,2.359-0.074
		c0.929,0,1.908,0.074,2.812,0.074c0.15,0,0.451,0,0.451-0.497c0-0.248-0.251-0.273-0.301-0.273
		c-0.226-0.024-1.003-0.075-1.003-0.779c0-0.401,0.376-0.804,0.677-1.13l2.561-2.714c0.752-0.83,1.732-1.86,2.259-2.465l2.536,6.008
		c0.1,0.276,0.125,0.301,0.125,0.352c0,0.201-0.478,0.629-1.456,0.729c-0.277,0.025-0.503,0.05-0.503,0.473
		c0,0.298,0.277,0.298,0.376,0.298c0.703,0,2.46-0.074,3.164-0.074c0.627,0,2.159,0.074,2.786,0.074c0.176,0,0.477,0,0.477-0.472
		c0-0.298-0.251-0.298-0.451-0.298c-1.683-0.025-1.732-0.101-2.16-1.105c-0.978-2.338-2.661-6.259-3.239-7.768
		c1.707-1.76,4.344-4.751,5.147-5.455c0.727-0.604,1.682-1.206,3.188-1.282c0.327-0.024,0.552-0.024,0.552-0.496
		c0-0.025,0-0.274-0.326-0.274c-0.753,0-1.582,0.075-2.36,0.075c-0.928,0-1.882-0.075-2.786-0.075c-0.15,0-0.477,0-0.477,0.497
		c0,0.174,0.125,0.249,0.301,0.273c0.227,0.026,1.004,0.076,1.004,0.78c0,0.353-0.276,0.679-0.477,0.904"/>
</g>
<g>
	<path d="M350.855,88.259h2.158c0.502,0,0.754,0,0.754-0.497c0-0.273-0.252-0.273-0.678-0.273h-2.084
		c0.277-1.449,0.252-1.4,0.527-2.849c0.1-0.525,0.451-2.3,0.603-2.601c0.226-0.475,0.652-0.851,1.181-0.851c0.1,0,0.753,0,1.23,0.42
		c-1.104,0.102-1.355,0.982-1.355,1.36c0,0.579,0.452,0.881,0.929,0.881c0.653,0,1.382-0.55,1.382-1.499
		c0-1.148-1.155-1.723-2.186-1.723c-0.854,0-2.436,0.453-3.188,2.93c-0.15,0.526-0.226,0.776-0.829,3.93h-1.732
		c-0.477,0-0.752,0-0.752,0.472c0,0.298,0.226,0.298,0.702,0.298h1.657l-1.883,9.96c-0.452,2.445-0.879,4.74-2.185,4.74
		c-0.101,0-0.728,0-1.205-0.488c1.155-0.075,1.381-0.982,1.381-1.359c0-0.58-0.452-0.882-0.93-0.882
		c-0.653,0-1.381,0.562-1.381,1.531c0,1.147,1.104,1.759,2.134,1.759c1.381,0,2.385-1.488,2.836-2.446
		c0.805-1.589,1.382-4.641,1.407-4.817"/>
	<path d="M361.93,104.388c0-0.075,0-0.125-0.43-0.553c-3.153-3.166-3.961-7.914-3.961-11.758c0-4.372,0.96-8.744,4.062-11.884
		c0.329-0.301,0.329-0.351,0.329-0.426c0-0.176-0.102-0.256-0.254-0.256c-0.252,0-2.524,1.714-4.016,4.905
		c-1.288,2.764-1.591,5.552-1.591,7.663c0,1.959,0.277,4.999,1.667,7.838c1.516,3.091,3.688,4.724,3.94,4.724
		C361.829,104.64,361.931,104.565,361.93,104.388"/>
	<path d="M368.898,90.486c0.177-0.679,0.855-1.384,1.307-1.761c0.879-0.78,1.608-0.957,2.034-0.957c1.006,0,1.608,0.88,1.608,2.365
		c0,1.484-0.829,4.377-1.28,5.333c-0.855,1.761-2.061,2.591-2.99,2.591c-1.658,0-1.984-2.088-1.984-2.239
		c0-0.051,0-0.102,0.074-0.403 M364.481,101.436c-0.2,0.857-0.251,1.034-1.356,1.034c-0.302,0-0.579,0-0.579,0.472
		c0,0.199,0.126,0.299,0.327,0.299c0.679,0,1.408-0.075,2.111-0.075c0.829,0,1.685,0.075,2.488,0.075c0.126,0,0.452,0,0.452-0.498
		c0-0.273-0.251-0.273-0.604-0.273c-1.257,0-1.257-0.177-1.257-0.405c0-0.303,1.056-4.423,1.232-5.056
		c0.326,0.729,1.03,1.61,2.312,1.61c2.916,0,6.06-3.677,6.06-7.377c0-2.367-1.434-4.031-3.345-4.031
		c-1.257,0-2.464,0.919-3.292,1.916c-0.252-1.379-1.332-1.916-2.263-1.916c-1.156,0-1.634,0.988-1.86,1.442
		c-0.452,0.86-0.779,2.379-0.779,2.454c0,0.253,0.252,0.253,0.303,0.253c0.251,0,0.276-0.025,0.428-0.581
		c0.427-1.794,0.93-3.009,1.834-3.009c0.427,0,0.779,0.204,0.779,1.162c0,0.58-0.076,0.857-0.177,1.286L364.481,101.436z"/>
	<path d="M387.71,92.53h6.983c0.351,0,0.828,0,0.828-0.49c0-0.49-0.478-0.49-0.828-0.49h-6.983v-7.014c0-0.351,0-0.827-0.49-0.827
		s-0.49,0.476-0.49,0.827v7.014h-7.071c-0.353,0-0.833,0-0.833,0.49c0,0.49,0.48,0.49,0.833,0.49h7.071v7.075
		c0,0.354,0,0.833,0.49,0.833s0.49-0.479,0.49-0.833"/>
	<path d="M405.544,81.186c0-0.024,0-0.276-0.325-0.276c-0.577,0-2.405,0.2-3.058,0.249c-0.2,0.025-0.476,0.05-0.476,0.5
		c0,0.301,0.226,0.301,0.601,0.301c1.203,0,1.254,0.177,1.254,0.428l-0.076,0.503l-3.633,14.471c-0.1,0.352-0.1,0.403-0.1,0.553
		c0,0.578,0.5,0.704,0.726,0.704c0.4,0,0.801-0.302,0.926-0.654l0.477-1.912c0.175-0.755,0.376-1.51,0.551-2.266
		c0.149-0.554,0.3-1.107,0.425-1.686c0.05-0.151,0.251-0.981,0.276-1.132c0.074-0.226,0.852-1.636,1.702-2.315
		c0.551-0.402,1.327-0.882,2.404-0.882c1.076,0,1.353,0.857,1.353,1.764c0,1.359-0.958,4.102-1.563,5.638
		c-0.202,0.579-0.328,0.881-0.328,1.383c0,1.184,0.885,2.064,2.07,2.064c2.373,0,3.309-3.668,3.309-3.869
		c0-0.251-0.227-0.251-0.302-0.251c-0.251,0-0.251,0.075-0.376,0.452c-0.376,1.329-1.179,3.109-2.559,3.109
		c-0.427,0-0.603-0.251-0.603-0.831c0-0.629,0.224-1.233,0.447-1.787c0.397-1.082,1.515-4.078,1.515-5.537
		c0-1.636-1.004-2.695-2.884-2.695c-1.578,0-2.78,0.792-3.708,1.966"/>
	<path d="M424.946,88.021l-2.108-5.005c-0.075-0.201-0.125-0.302-0.125-0.327c0-0.151,0.427-0.629,1.481-0.73
		c0.251-0.024,0.502-0.05,0.502-0.472c0-0.299-0.301-0.299-0.377-0.299c-1.029,0-2.109,0.075-3.163,0.075
		c-0.628,0-2.185-0.075-2.812-0.075c-0.15,0-0.452,0-0.452,0.497c0,0.273,0.251,0.273,0.578,0.273c1.506,0,1.656,0.251,1.883,0.805
		l2.963,7.014l-5.298,5.706c-0.15,0.125-0.176,0.151-0.327,0.276c-1.229,1.333-2.409,1.735-3.69,1.81
		c-0.326,0.025-0.552,0.025-0.552,0.497c0,0.025,0,0.273,0.326,0.273c0.754,0,1.581-0.075,2.36-0.075
		c0.928,0,1.908,0.075,2.812,0.075c0.15,0,0.451,0,0.451-0.497c0-0.248-0.251-0.273-0.301-0.273
		c-0.227-0.025-1.004-0.075-1.004-0.779c0-0.402,0.377-0.804,0.678-1.131l2.561-2.714c0.754-0.83,1.732-1.86,2.26-2.464l2.536,6.007
		c0.101,0.276,0.125,0.302,0.125,0.352c0,0.201-0.478,0.629-1.456,0.729c-0.276,0.025-0.503,0.05-0.503,0.472
		c0,0.298,0.277,0.298,0.377,0.298c0.703,0,2.46-0.075,3.164-0.075c0.627,0,2.158,0.075,2.786,0.075c0.176,0,0.477,0,0.477-0.472
		c0-0.298-0.251-0.298-0.451-0.298c-1.683-0.025-1.733-0.101-2.16-1.106c-0.979-2.338-2.661-6.258-3.238-7.767
		c1.707-1.76,4.344-4.751,5.146-5.455c0.729-0.604,1.683-1.207,3.188-1.282c0.327-0.025,0.553-0.025,0.553-0.497
		c0-0.025,0-0.274-0.325-0.274c-0.754,0-1.582,0.075-2.36,0.075c-0.93,0-1.883-0.075-2.787-0.075c-0.15,0-0.477,0-0.477,0.497
		c0,0.173,0.126,0.249,0.301,0.273c0.226,0.026,1.005,0.076,1.005,0.78c0,0.353-0.276,0.68-0.477,0.905"/>
	<path d="M442.869,92.077c0-1.96-0.278-5-1.664-7.839c-1.513-3.09-3.681-4.729-3.933-4.729c-0.151,0-0.251,0.105-0.251,0.256
		c0,0.075,0,0.126,0.478,0.578c2.466,2.488,3.899,6.482,3.899,11.733c0,4.296-0.932,8.717-4.051,11.884
		c-0.326,0.302-0.326,0.352-0.326,0.427c0,0.151,0.1,0.25,0.251,0.25c0.252,0,2.521-1.708,4.008-4.898
		C442.565,96.977,442.869,94.188,442.869,92.077"/>
</g>
<g>
	<path d="M68.442,156.026c0.176-0.68,0.854-1.384,1.306-1.762c0.88-0.779,1.608-0.956,2.035-0.956c1.005,0,1.607,0.881,1.607,2.365
		s-0.829,4.378-1.28,5.333c-0.855,1.76-2.061,2.591-2.99,2.591c-1.658,0-1.984-2.089-1.984-2.239c0-0.051,0-0.101,0.075-0.402
		 M64.025,166.976c-0.201,0.857-0.251,1.033-1.357,1.033c-0.302,0-0.578,0-0.578,0.473c0,0.199,0.125,0.299,0.327,0.299
		c0.679,0,1.408-0.076,2.111-0.076c0.83,0,1.684,0.076,2.488,0.076c0.125,0,0.452,0,0.452-0.498c0-0.273-0.251-0.273-0.603-0.273
		c-1.257,0-1.257-0.178-1.257-0.404c0-0.303,1.055-4.424,1.232-5.057c0.327,0.73,1.03,1.61,2.312,1.61
		c2.917,0,6.06-3.677,6.06-7.378c0-2.366-1.434-4.03-3.344-4.03c-1.258,0-2.464,0.919-3.293,1.915
		c-0.251-1.379-1.332-1.915-2.262-1.915c-1.157,0-1.634,0.987-1.86,1.441c-0.452,0.861-0.779,2.38-0.779,2.454
		c0,0.254,0.251,0.254,0.302,0.254c0.251,0,0.276-0.025,0.427-0.582c0.428-1.794,0.931-3.008,1.835-3.008
		c0.427,0,0.779,0.203,0.779,1.162c0,0.58-0.076,0.857-0.176,1.285L64.025,166.976z"/>
	<path d="M87.254,158.069h6.983c0.351,0,0.827,0,0.827-0.489c0-0.49-0.477-0.49-0.827-0.49h-6.983v-7.015
		c0-0.351,0-0.826-0.49-0.826s-0.49,0.476-0.49,0.826v7.015h-7.071c-0.354,0-0.833,0-0.833,0.49c0,0.489,0.479,0.489,0.833,0.489
		h7.071v7.075c0,0.354,0,0.833,0.49,0.833s0.49-0.479,0.49-0.833"/>
	<path d="M105.087,146.726c0-0.024,0-0.275-0.325-0.275c-0.576,0-2.405,0.2-3.057,0.249c-0.2,0.025-0.477,0.05-0.477,0.5
		c0,0.301,0.226,0.301,0.602,0.301c1.203,0,1.253,0.177,1.253,0.428l-0.075,0.503l-3.634,14.471c-0.1,0.353-0.1,0.402-0.1,0.553
		c0,0.578,0.5,0.704,0.727,0.704c0.399,0,0.801-0.302,0.925-0.654l0.477-1.912c0.175-0.755,0.376-1.51,0.551-2.265
		c0.15-0.555,0.301-1.107,0.426-1.688c0.05-0.15,0.251-0.98,0.276-1.132c0.074-0.226,0.851-1.637,1.702-2.315
		c0.551-0.402,1.327-0.883,2.403-0.883s1.354,0.857,1.354,1.764c0,1.359-0.959,4.104-1.564,5.639
		c-0.201,0.578-0.327,0.881-0.327,1.383c0,1.184,0.884,2.064,2.069,2.064c2.373,0,3.309-3.668,3.309-3.869
		c0-0.252-0.226-0.252-0.302-0.252c-0.251,0-0.251,0.076-0.376,0.453c-0.376,1.328-1.179,3.108-2.559,3.108
		c-0.426,0-0.602-0.251-0.602-0.831c0-0.629,0.223-1.232,0.446-1.787c0.397-1.082,1.515-4.077,1.515-5.537
		c0-1.636-1.003-2.693-2.883-2.693c-1.579,0-2.781,0.791-3.709,1.965"/>
	<path d="M124.489,153.561l-2.107-5.005c-0.075-0.201-0.126-0.302-0.126-0.327c0-0.151,0.427-0.629,1.481-0.73
		c0.251-0.024,0.502-0.05,0.502-0.472c0-0.298-0.302-0.298-0.377-0.298c-1.029,0-2.107,0.075-3.163,0.075
		c-0.627,0-2.184-0.075-2.812-0.075c-0.15,0-0.452,0-0.452,0.496c0,0.273,0.251,0.273,0.577,0.273c1.507,0,1.657,0.252,1.883,0.805
		l2.962,7.014l-5.297,5.706c-0.151,0.126-0.176,0.15-0.326,0.276c-1.23,1.332-2.41,1.735-3.69,1.81
		c-0.326,0.025-0.553,0.025-0.553,0.496c0,0.025,0,0.273,0.326,0.273c0.754,0,1.582-0.074,2.36-0.074
		c0.929,0,1.908,0.074,2.812,0.074c0.15,0,0.451,0,0.451-0.497c0-0.248-0.251-0.273-0.301-0.273
		c-0.226-0.025-1.004-0.075-1.004-0.779c0-0.401,0.377-0.804,0.678-1.131l2.561-2.714c0.753-0.83,1.732-1.859,2.26-2.465
		l2.536,6.008c0.1,0.276,0.126,0.302,0.126,0.353c0,0.2-0.478,0.629-1.457,0.729c-0.275,0.025-0.502,0.05-0.502,0.472
		c0,0.299,0.276,0.299,0.377,0.299c0.702,0,2.459-0.074,3.162-0.074c0.629,0,2.159,0.074,2.787,0.074c0.176,0,0.477,0,0.477-0.472
		c0-0.298-0.251-0.298-0.451-0.298c-1.682-0.025-1.732-0.101-2.159-1.106c-0.979-2.338-2.662-6.259-3.239-7.768
		c1.707-1.76,4.343-4.75,5.146-5.454c0.728-0.604,1.683-1.207,3.188-1.282c0.326-0.024,0.553-0.024,0.553-0.496
		c0-0.025,0-0.274-0.327-0.274c-0.753,0-1.581,0.075-2.359,0.075c-0.929,0-1.883-0.075-2.786-0.075c-0.15,0-0.478,0-0.478,0.497
		c0,0.174,0.126,0.249,0.302,0.273c0.226,0.025,1.004,0.075,1.004,0.779c0,0.354-0.276,0.68-0.477,0.905"/>
</g>
<g>
	<path d="M383.79,145.16c-0.126,0.452-0.126,0.503-0.502,0.931c-1.102,1.384-2.128,1.787-2.83,1.787
		c-1.252,0-1.604-1.385-1.604-2.365c0-1.257,0.802-4.351,1.378-5.508c0.775-1.484,1.903-2.415,2.905-2.415
		c1.628,0,1.979,2.062,1.979,2.214s-0.05,0.302-0.075,0.428 M389.011,131.005c0-0.025,0-0.278-0.328-0.278
		c-0.375,0-2.751,0.225-3.175,0.275c-0.201,0.025-0.351,0.15-0.351,0.475c0,0.301,0.225,0.301,0.6,0.301
		c1.2,0,1.25,0.176,1.25,0.428l-0.075,0.502l-1.5,5.958c-0.449-0.948-1.175-1.641-2.301-1.641c-2.926,0-6.026,3.705-6.026,7.38
		c0,2.366,1.375,4.028,3.326,4.028c0.5,0,1.751-0.101,3.251-1.887c0.201,1.058,1.076,1.887,2.276,1.887
		c0.875,0,1.45-0.578,1.851-1.382c0.425-0.905,0.75-2.438,0.75-2.487c0-0.251-0.225-0.251-0.3-0.251c-0.25,0-0.275,0.101-0.35,0.452
		c-0.426,1.629-0.875,3.108-1.9,3.108c-0.675,0-0.751-0.652-0.751-1.155c0-0.603,0.05-0.778,0.149-1.204L389.011,131.005z"/>
	<path d="M394.158,138.078h2.159c0.501,0,0.753,0,0.753-0.497c0-0.273-0.252-0.273-0.678-0.273h-2.084
		c0.277-1.449,0.252-1.399,0.527-2.849c0.101-0.525,0.451-2.3,0.603-2.601c0.227-0.475,0.652-0.851,1.181-0.851
		c0.1,0,0.753,0,1.231,0.42c-1.104,0.101-1.356,0.981-1.356,1.36c0,0.578,0.452,0.881,0.929,0.881c0.653,0,1.382-0.549,1.382-1.499
		c0-1.148-1.155-1.723-2.186-1.723c-0.854,0-2.435,0.453-3.188,2.931c-0.15,0.525-0.226,0.776-0.828,3.93h-1.733
		c-0.477,0-0.752,0-0.752,0.472c0,0.299,0.226,0.299,0.702,0.299h1.656l-1.882,9.959c-0.452,2.446-0.879,4.739-2.185,4.739
		c-0.102,0-0.728,0-1.205-0.486c1.154-0.076,1.381-0.982,1.381-1.359c0-0.58-0.452-0.883-0.93-0.883
		c-0.653,0-1.381,0.562-1.381,1.531c0,1.146,1.104,1.758,2.134,1.758c1.381,0,2.385-1.486,2.837-2.445
		c0.804-1.59,1.381-4.642,1.405-4.818"/>
	<path d="M404.035,154.206c0-0.074,0-0.125-0.43-0.553c-3.153-3.164-3.961-7.913-3.961-11.756c0-4.372,0.959-8.745,4.062-11.885
		c0.328-0.301,0.328-0.352,0.328-0.427c0-0.176-0.102-0.256-0.253-0.256c-0.253,0-2.525,1.714-4.017,4.905
		c-1.288,2.764-1.591,5.553-1.591,7.663c0,1.958,0.277,4.999,1.667,7.838c1.516,3.092,3.688,4.723,3.94,4.723
		c0.152,0,0.254-0.074,0.254-0.25"/>
	<path d="M417.702,137.839l-2.108-5.005c-0.074-0.201-0.125-0.302-0.125-0.327c0-0.151,0.427-0.629,1.48-0.73
		c0.252-0.024,0.502-0.05,0.502-0.472c0-0.298-0.301-0.298-0.376-0.298c-1.029,0-2.108,0.075-3.164,0.075
		c-0.627,0-2.184-0.075-2.812-0.075c-0.15,0-0.452,0-0.452,0.497c0,0.273,0.251,0.273,0.577,0.273c1.507,0,1.657,0.252,1.884,0.805
		l2.962,7.014l-5.297,5.706c-0.151,0.126-0.176,0.151-0.326,0.276c-1.23,1.332-2.411,1.735-3.691,1.81
		c-0.326,0.025-0.552,0.025-0.552,0.497c0,0.025,0,0.272,0.326,0.272c0.753,0,1.581-0.074,2.359-0.074
		c0.929,0,1.908,0.074,2.812,0.074c0.15,0,0.451,0,0.451-0.497c0-0.248-0.252-0.273-0.301-0.273
		c-0.227-0.025-1.005-0.075-1.005-0.779c0-0.401,0.377-0.804,0.678-1.131l2.561-2.713c0.754-0.829,1.733-1.859,2.261-2.464
		l2.536,6.007c0.1,0.275,0.125,0.301,0.125,0.352c0,0.201-0.478,0.629-1.456,0.729c-0.276,0.025-0.503,0.05-0.503,0.473
		c0,0.298,0.276,0.298,0.377,0.298c0.703,0,2.459-0.074,3.163-0.074c0.628,0,2.158,0.074,2.787,0.074c0.176,0,0.477,0,0.477-0.472
		c0-0.298-0.252-0.298-0.451-0.298c-1.683-0.025-1.733-0.101-2.16-1.106c-0.979-2.338-2.661-6.257-3.239-7.766
		c1.708-1.761,4.344-4.751,5.146-5.456c0.729-0.604,1.683-1.207,3.188-1.282c0.326-0.024,0.553-0.024,0.553-0.496
		c0-0.025,0-0.274-0.326-0.274c-0.754,0-1.581,0.075-2.36,0.075c-0.929,0-1.882-0.075-2.786-0.075c-0.15,0-0.477,0-0.477,0.497
		c0,0.174,0.125,0.249,0.301,0.273c0.226,0.026,1.005,0.076,1.005,0.78c0,0.353-0.276,0.68-0.477,0.905"/>
	<path d="M435.555,141.896c0-1.961-0.277-5.001-1.665-7.839c-1.512-3.09-3.68-4.729-3.932-4.729c-0.151,0-0.252,0.105-0.252,0.256
		c0,0.075,0,0.125,0.479,0.578c2.466,2.487,3.899,6.481,3.899,11.733c0,4.295-0.932,8.716-4.051,11.882
		c-0.327,0.303-0.327,0.354-0.327,0.428c0,0.152,0.101,0.252,0.252,0.252c0.252,0,2.521-1.709,4.008-4.898
		C435.251,146.795,435.555,144.006,435.555,141.896"/>
</g>
</svg>
